<svg xmlns="http://www.w3.org/2000/svg" width="42" height="28" viewBox="0 0 42 28"><path d="M7.663,638.983a3.923,3.923,0,0,1,2.737,1.1,3.659,3.659,0,0,1,0,5.319,3.939,3.939,0,0,1-2.737,1.1,3.764,3.764,0,1,1,0-7.527Zm0,5.854a2.092,2.092,0,1,0,0-4.182,2.091,2.091,0,1,0,0,4.182Zm-.992-18.391a.841.841,0,0,1,.573-.217h4.387a.849.849,0,0,1,.855.836v6.858a.848.848,0,0,1-.855.836H4.67a.848.848,0,0,1-.855-.836v-4.591a.829.829,0,0,1,.282-.619Zm-1.146,6.64h5.251v-5.194h-3.2L5.525,629.7Zm23.023,5.9a3.923,3.923,0,0,1,2.737,1.1,3.659,3.659,0,0,1,0,5.319,3.939,3.939,0,0,1-2.737,1.1,3.764,3.764,0,1,1,0-7.527Zm0,5.854a2.092,2.092,0,1,0,0-4.182,2.091,2.091,0,1,0,0,4.182Zm5.7-4.826h1.719v-2.225a.855.855,0,0,1,1.71,0v3.061a.848.848,0,0,1-.855.836H34.252a.836.836,0,1,1,0-1.673Zm-4.336-4.558a.848.848,0,0,1,.855-.836H41.145a.837.837,0,1,1,0,1.673H30.771A.843.843,0,0,1,29.916,635.454Zm9.493-3.019-10.374.059a.855.855,0,0,1-.864-.828.837.837,0,0,1,.847-.845l10.374-.059H39.4a.836.836,0,1,1,.009,1.673Zm-1.745-3.8H27.29a.837.837,0,1,1,0-1.673H37.664a.837.837,0,1,1,0,1.673ZM.316,627.509h0l6.123-4.959a.854.854,0,0,1,.547-.192h7.2v-3.011a.848.848,0,0,1,.855-.836H36.826a.848.848,0,0,1,.855.836v6.122a.855.855,0,0,1-1.71,0v-5.286H15.89v19.829H22.9a.836.836,0,1,1,0,1.673H12.461a.836.836,0,1,1,0-1.673H14.18V624.03H7.286L1.71,628.546,1.77,640H2.66a.837.837,0,1,1,0,1.673H.924a.841.841,0,0,1-.855-.828L0,628.161A.876.876,0,0,1,.316,627.509Z" transform="translate(0 -618.51)" fill="#1abcbc"/></svg>