<svg xmlns="http://www.w3.org/2000/svg" width="94" height="70" viewBox="0 0 94 70"><g transform="translate(-6939.027 -1523.226)"><path d="M2.826,0H47.268l3.541,51.183H-1.036Z" transform="translate(6957.117 1542.044)" fill="#639704"/><path d="M1.414,0H30.3l2.246,32.462H-1.036Z" transform="translate(6987.523 1560.765)" fill="#1abcbc"/><g transform="translate(7022.942 1554.746) rotate(-150)"><path d="M15.612,14.942a8.341,8.341,0,0,1-7.435,5.227C3.663,20.169,0,15.961,0,11.447,0,7.386,2.965,1.368,6.847.2a4.483,4.483,0,0,1,2.66,0,6.715,6.715,0,0,1,2.638,1.613,14.73,14.73,0,0,1,4.208,9.632,8.771,8.771,0,0,1-.741,3.494Zm0,0" transform="translate(0 0)" fill="#42613e"/><path d="M7.937.2A4.268,4.268,0,0,1,8.722.038,3.7,3.7,0,0,0,8.177,0a4.57,4.57,0,0,0-1.33.2C2.965,1.368,0,7.386,0,11.447c0,4.513,3.663,8.722,8.177,8.722.185,0,.365-.005.545-.022-4.263-.322-7.632-4.372-7.632-8.7C1.09,7.386,4.056,1.368,7.937.2Zm0,0" transform="translate(0 0)" fill="#385434"/><path d="M2.208,2.957A6.013,6.013,0,0,0,2.726.545a.545.545,0,1,1,1.09,0,7.1,7.1,0,0,1-.607,2.846A7.383,7.383,0,0,1,.872,6.378a.545.545,0,0,1-.654-.872,6.283,6.283,0,0,0,1.99-2.549Zm0,0" transform="translate(10.902 10.902)" fill="#f1f2f2"/><path d="M.545.277A4.521,4.521,0,0,0,2.005.029a.545.545,0,0,1,.351,1.032,5.612,5.612,0,0,1-1.811.306.545.545,0,0,1,0-1.09Zm0,0" transform="translate(7.632 17.166)" fill="#f1f2f2"/></g><g transform="matrix(-0.985, 0.174, -0.174, -0.985, 7018.776, 1546.794)"><path d="M17.135,16.4a9.154,9.154,0,0,1-8.161,5.737C4.021,22.137,0,17.518,0,12.564,0,8.107,3.255,1.5,7.514.222a4.921,4.921,0,0,1,2.92,0,7.37,7.37,0,0,1,2.9,1.771,16.166,16.166,0,0,1,4.619,10.572,9.627,9.627,0,0,1-.814,3.835Zm0,0" transform="translate(0 1.795)" fill="#f79b7c"/><path d="M8.711.221a4.684,4.684,0,0,1,.861-.18A4.059,4.059,0,0,0,8.974,0a5.015,5.015,0,0,0-1.46.221C3.255,1.5,0,8.107,0,12.564c0,4.954,4.021,9.573,8.974,9.573.2,0,.4-.006.6-.024C4.894,21.76,1.2,17.314,1.2,12.564,1.2,8.107,4.451,1.5,8.711.221Zm0,0" transform="translate(0 1.795)" fill="#e68f72"/><path d="M.335,2.016,0,0H3.59L3.255,2.016a4.921,4.921,0,0,0-2.92,0Zm0,0" transform="translate(7.179 0)" fill="#e68f72"/><path d="M.335,2.016a4.963,4.963,0,0,1,.574-.138L.6,0H0Zm0,0" transform="translate(7.179 0)" fill="#d18268"/><path d="M2.424,3.245A6.6,6.6,0,0,0,2.991.6a.6.6,0,1,1,1.2,0,7.793,7.793,0,0,1-.666,3.123A8.1,8.1,0,0,1,.957,7a.6.6,0,0,1-.718-.957,6.9,6.9,0,0,0,2.184-2.8Zm0,0" transform="translate(11.966 13.761)" fill="#f1f2f2"/><path d="M.6.3A4.962,4.962,0,0,0,2.2.032a.6.6,0,0,1,.385,1.133A6.159,6.159,0,0,1,.6,1.5.6.6,0,0,1,.6.3Zm0,0" transform="translate(8.376 20.636)" fill="#f1f2f2"/></g><g transform="translate(7012.094 1560.695) rotate(-150)"><path d="M15.612,14.942a8.341,8.341,0,0,1-7.435,5.227C3.663,20.169,0,15.961,0,11.447,0,7.386,2.965,1.368,6.847.2a4.483,4.483,0,0,1,2.66,0,6.715,6.715,0,0,1,2.638,1.613,14.73,14.73,0,0,1,4.208,9.632,8.771,8.771,0,0,1-.741,3.494Zm0,0" transform="translate(0 0)" fill="#ffcd00"/><path d="M7.937.2A4.268,4.268,0,0,1,8.722.038,3.7,3.7,0,0,0,8.177,0a4.57,4.57,0,0,0-1.33.2C2.965,1.368,0,7.386,0,11.447c0,4.513,3.663,8.722,8.177,8.722.185,0,.365-.005.545-.022-4.263-.322-7.632-4.372-7.632-8.7C1.09,7.386,4.056,1.368,7.937.2Zm0,0" transform="translate(0 0)" fill="#e5b800"/><path d="M2.208,2.957A6.013,6.013,0,0,0,2.726.545a.545.545,0,1,1,1.09,0,7.1,7.1,0,0,1-.607,2.846A7.383,7.383,0,0,1,.872,6.378a.545.545,0,0,1-.654-.872,6.283,6.283,0,0,0,1.99-2.549Zm0,0" transform="translate(10.902 10.902)" fill="#f1f2f2"/><path d="M.545.277A4.521,4.521,0,0,0,2.005.029a.545.545,0,0,1,.351,1.032,5.612,5.612,0,0,1-1.811.306.545.545,0,0,1,0-1.09Zm0,0" transform="translate(7.632 17.166)" fill="#f1f2f2"/></g><path d="M7104.394,1625.893s-.454-8.771,6.578-8.771,6.352,8.771,6.352,8.771" transform="translate(-107.62 -61.038)" fill="none" stroke="#f7f7f7" stroke-width="2"/><path d="M7104.4,1630.9s-.713-13.78,10.335-13.78,9.979,13.78,9.979,13.78" transform="translate(-132.466 -82.144)" fill="none" stroke="#f7f7f7" stroke-width="2"/><g transform="translate(7010.444 1560.765)"><path d="M7152.878,1630.5v2.994l1.766,3.181,1.366,4.718" transform="translate(-7149.636 -1630.498)" fill="none" stroke="#f7f7f7" stroke-width="2"/><ellipse cx="7.5" cy="8.5" rx="7.5" ry="8.5" transform="translate(0 7.462)" fill="#fc3346"/><text transform="matrix(0.995, -0.105, 0.105, 0.995, 7.583, 17.462)" fill="#fff" font-size="5" font-family="SegoeUI-Bold, Segoe UI" font-weight="700"><tspan x="-5.044" y="0">46%</tspan></text><text transform="translate(7.583 21.462)" fill="#fff" font-size="3" font-family="SegoeUI-Bold, Segoe UI" font-weight="700"><tspan x="-2.698" y="0">OFF</tspan></text></g><path d="M0-7.243l5.083-3.9H8.459l4.489,3.9V12.7H0Z" transform="translate(6949.166 1576.232)" fill="#fc3346"/><g transform="matrix(-0.966, -0.259, 0.259, -0.966, 6964.932, 1553.599)"><path d="M17.135,16.4a9.154,9.154,0,0,1-8.161,5.737C4.021,22.137,0,17.518,0,12.564,0,8.107,3.255,1.5,7.514.222a4.921,4.921,0,0,1,2.92,0,7.37,7.37,0,0,1,2.9,1.771,16.166,16.166,0,0,1,4.619,10.572,9.627,9.627,0,0,1-.814,3.835Zm0,0" transform="translate(0 1.795)" fill="#f79b7c"/><path d="M8.711.221a4.684,4.684,0,0,1,.861-.18A4.059,4.059,0,0,0,8.974,0a5.015,5.015,0,0,0-1.46.221C3.255,1.5,0,8.107,0,12.564c0,4.954,4.021,9.573,8.974,9.573.2,0,.4-.006.6-.024C4.894,21.76,1.2,17.314,1.2,12.564,1.2,8.107,4.451,1.5,8.711.221Zm0,0" transform="translate(0 1.795)" fill="#e68f72"/><path d="M.335,2.016,0,0H3.59L3.255,2.016a4.921,4.921,0,0,0-2.92,0Zm0,0" transform="translate(7.179 0)" fill="#e68f72"/><path d="M.335,2.016a4.963,4.963,0,0,1,.574-.138L.6,0H0Zm0,0" transform="translate(7.179 0)" fill="#d18268"/><path d="M2.424,3.245A6.6,6.6,0,0,0,2.991.6a.6.6,0,1,1,1.2,0,7.793,7.793,0,0,1-.666,3.123A8.1,8.1,0,0,1,.957,7a.6.6,0,0,1-.718-.957,6.9,6.9,0,0,0,2.184-2.8Zm0,0" transform="translate(11.966 13.761)" fill="#f1f2f2"/><path d="M.6.3A4.962,4.962,0,0,0,2.2.032a.6.6,0,0,1,.385,1.133A6.159,6.159,0,0,1,.6,1.5.6.6,0,0,1,.6.3Zm0,0" transform="translate(8.376 20.636)" fill="#f1f2f2"/></g><g transform="translate(6964.96 1567.135) rotate(161)"><path d="M1.3,0A.545.545,0,0,0,.782.717l.584,1.754a2.71,2.71,0,0,1-.318,2.374l-.4.606A3.793,3.793,0,0,0,.2,8.776l.585,1.752a.546.546,0,1,0,1.036-.344L1.235,8.431a2.708,2.708,0,0,1,.319-2.374l.4-.606A3.792,3.792,0,0,0,2.4,2.126L1.813.372A.545.545,0,0,0,1.3,0Zm0,0" transform="translate(6.878 0)" fill="#ff9811"/><path d="M15.612,14.942a8.341,8.341,0,0,1-7.435,5.227C3.663,20.169,0,15.961,0,11.447,0,7.386,2.965,1.368,6.847.2a4.483,4.483,0,0,1,2.66,0,6.715,6.715,0,0,1,2.638,1.613,14.73,14.73,0,0,1,4.208,9.632,8.771,8.771,0,0,1-.741,3.494Zm0,0" transform="translate(0 11.992)" fill="#ffcd00"/><path d="M7.937.2A4.268,4.268,0,0,1,8.722.038,3.7,3.7,0,0,0,8.177,0a4.57,4.57,0,0,0-1.33.2C2.965,1.368,0,7.386,0,11.447c0,4.513,3.663,8.722,8.177,8.722.185,0,.365-.005.545-.022-4.263-.322-7.632-4.372-7.632-8.7C1.09,7.386,4.056,1.368,7.937.2Zm0,0" transform="translate(0 11.992)" fill="#e5b800"/><path d="M.305,1.837,0,0H3.271L2.965,1.837a4.483,4.483,0,0,0-2.66,0Zm0,0" transform="translate(6.541 10.357)" fill="#cca400"/><path d="M.305,1.837a4.522,4.522,0,0,1,.523-.125L.545,0H0Zm0,0" transform="translate(6.541 10.357)" fill="#a38300"/><path d="M2.208,2.957A6.013,6.013,0,0,0,2.726.545a.545.545,0,1,1,1.09,0,7.1,7.1,0,0,1-.607,2.846A7.383,7.383,0,0,1,.872,6.378a.545.545,0,0,1-.654-.872,6.283,6.283,0,0,0,1.99-2.549Zm0,0" transform="translate(10.902 22.895)" fill="#f1f2f2"/><path d="M.545.277A4.521,4.521,0,0,0,2.005.029a.545.545,0,0,1,.351,1.032,5.612,5.612,0,0,1-1.811.306.545.545,0,0,1,0-1.09Zm0,0" transform="translate(7.632 29.159)" fill="#f1f2f2"/></g><text transform="translate(6955.626 1576.833)" fill="#fff" font-size="5" font-family="SegoeUI-Bold, Segoe UI" font-weight="700"><tspan x="-5.044" y="0">80%</tspan></text><text transform="translate(6955.619 1582.226)" fill="#fff" font-size="3" font-family="SegoeUI-Bold, Segoe UI" font-weight="700"><tspan x="-4.444" y="0">BEALS</tspan></text></g></svg>