<svg xmlns="http://www.w3.org/2000/svg" width="77" height="70" viewBox="0 0 77 70"><g transform="translate(-149 -229)"><g transform="translate(149 206.581)"><path d="M159.05,87.135,157.921,90.5a7.341,7.341,0,0,1-9.269,4.609l-2.737-.92-19.128-6.419a7.343,7.343,0,0,1-4.611-9.269l1.129-3.361a7.343,7.343,0,0,1,9.269-4.611l21.867,7.341A7.341,7.341,0,0,1,159.05,87.135Z" transform="translate(-103.505 -40.54)" fill="#78b9eb"/><path d="M147.416,94.756l-1.5,1.292-19.128-6.419a7.343,7.343,0,0,1-4.611-9.269L123.306,77a7.321,7.321,0,0,1,4.79-4.659Z" transform="translate(-103.494 -42.403)" fill="#5aaae7"/><path d="M50.175,79.176l-12.759,11-1.927,1.66L11.976,64.556,13.9,62.894l12.759-11Z" transform="translate(-10.172 -25.038)" fill="#c70024"/><path d="M61.05,79.176l-12.759,11L24.78,62.894l12.759-11Z" transform="translate(-21.048 -25.038)" fill="#ff0c38"/><path d="M17.835,43.265,3.255,55.83a1.778,1.778,0,0,1-2.5-.186l-.33-.383a1.776,1.776,0,0,1,.186-2.5l1.153-.995L15.191,40.2a1.775,1.775,0,0,1,2.477.162.31.31,0,0,1,.022.023l.329.383A1.776,1.776,0,0,1,17.835,43.265Z" transform="translate(0 -14.738)" fill="#a5001e"/><path d="M27.628,40.361,14.2,51.933a1.774,1.774,0,0,1-2.475-.162L25.152,40.2A1.775,1.775,0,0,1,27.628,40.361Z" transform="translate(-9.961 -14.739)" fill="#c70024"/><circle cx="6.862" cy="6.862" r="6.862" transform="translate(12.549 38.213)" fill="#a5001e"/><path d="M104.96,148.653l-1.176-.925.388-1.595a1.169,1.169,0,0,0-2.272-.553l-.262,1.075a6.581,6.581,0,0,0-1.538-.189,5.4,5.4,0,0,0-4.976,3.25,1.169,1.169,0,0,0,.345,1.479,5.886,5.886,0,0,0,3.238,1.058,4.878,4.878,0,0,0,4.093-2.324l.713.561a1.169,1.169,0,0,0,1.446-1.838Zm-6.252,1.263a2.946,2.946,0,0,1-.828-.127,2.862,2.862,0,0,1,2.221-.984,3.969,3.969,0,0,1,.587.045A2.527,2.527,0,0,1,98.708,149.916Z" transform="translate(-80.71 -103.959)" fill="#ffcd00"/><path d="M271.688,29.4l-16.065-6.765a2.7,2.7,0,0,0-3.537,1.441l-2.233,5.305h0l-6.57,5.248a5.759,5.759,0,0,0-.628.582,5.9,5.9,0,0,0-1.13,1.742L236.157,49.7a3.988,3.988,0,0,0,2.128,5.224l3.785,1.593h0l18.6,7.831a3.989,3.989,0,0,0,5.225-2.129l5.372-12.76a5.912,5.912,0,0,0,.436-2.86L270.9,38.24l2.233-5.3A2.7,2.7,0,0,0,271.688,29.4Z" transform="translate(-200.433 -0.002)" fill="#ff728b"/><path d="M295.788,121.314l-18.6-7.831L284.1,97.058a5.911,5.911,0,0,1,1.758-2.324l6.57-5.249L306.014,95.2l.806,8.362a5.91,5.91,0,0,1-.436,2.86l-5.372,12.76A3.989,3.989,0,0,1,295.788,121.314Z" transform="translate(-235.551 -56.966)" fill="#ff3f62"/><path d="M270.9,77.488l-6.451,5.337a5.759,5.759,0,0,0-.587.56,5.866,5.866,0,0,0-1.092,1.7l-6.936,16.475-17.544-7.386a3.988,3.988,0,0,1-2.128-5.224l5.368-12.75a5.9,5.9,0,0,1,1.13-1.742,5.728,5.728,0,0,1,.628-.582l6.57-5.248Z" transform="translate(-200.434 -39.251)" fill="#ff728b"/><path d="M277.451,116.27a5.865,5.865,0,0,0-1.092,1.7l-3.292,7.819-21.22-8.934,3.271-7.769a5.9,5.9,0,0,1,1.13-1.742Z" transform="translate(-213.999 -72.223)" fill="#ffa5b5"/><path d="M384.425,135.817l-.807-8.361-6.45,5.337a5.715,5.715,0,0,0-.588.56,5.881,5.881,0,0,0-1.093,1.7l-6.935,16.475,4.84,2.037a3.989,3.989,0,0,0,5.225-2.128l5.372-12.76A5.911,5.911,0,0,0,384.425,135.817Z" transform="translate(-313.156 -89.346)" fill="#ff0c38"/><g transform="translate(35.453 29.378)"><path d="M323.268,153.456a1.919,1.919,0,0,1-2.552,1.9l-.087-.034-.085-.038a1.919,1.919,0,0,1-.425-3.152l2.234-2.016a.476.476,0,0,1,.794.334Z" transform="translate(-306.883 -137.737)" fill="#ff3f62"/><path d="M254.125,70.422l-.069.167-6.57,5.248a5.71,5.71,0,0,0-.628.583,5.911,5.911,0,0,0-1.129,1.741l-6.792,16.282-.653-.274a3.987,3.987,0,0,1-2.128-5.224l5.367-12.75a5.907,5.907,0,0,1,1.13-1.741,5.706,5.706,0,0,1,.628-.583l6.569-5.247a0,0,0,0,1,0,0Z" transform="translate(-235.843 -68.623)" fill="#ff3f62"/></g><path d="M260.589,109.172c-.047.045-.09.092-.134.139a5.911,5.911,0,0,0-1.129,1.741l-3.175,7.613-4.3-1.81,3.27-7.769a5.907,5.907,0,0,1,1.13-1.741Z" transform="translate(-213.981 -72.213)" fill="#ff728b"/><path d="M349.908,38.24l-21.044-8.861,2.233-5.305a2.7,2.7,0,0,1,3.537-1.441L350.7,29.4a2.7,2.7,0,0,1,1.441,3.537Z" transform="translate(-279.445 -0.001)" fill="#ff3f62"/><path d="M336.347,23.351l-3.206,7.825-4.273-1.8,2.232-5.3a2.7,2.7,0,0,1,3.539-1.442Z" transform="translate(-279.417)" fill="#ff0c38"/><path d="M96.348,238.124l-11.123,34.25a3.543,3.543,0,0,1-3.368,2.45h-39.5A3.543,3.543,0,0,1,39,272.39l-11.31-34.266Z" transform="translate(-23.518 -183.575)" fill="#7ed63e"/><path d="M133.994,238.124l-11.121,34.25a3.542,3.542,0,0,1-3.367,2.45H86.678a3.542,3.542,0,0,1-3.363-2.435L72.009,238.124Z" transform="translate(-61.164 -183.575)" fill="#a4e276"/><path d="M90.7,230.843a1.167,1.167,0,0,0-.944-.482H27.824a1.169,1.169,0,0,0,0,2.338H88.152l-4.208,12.956h-6.9l1.887-8.877a1.167,1.167,0,1,0-2.283-.487l-1.99,9.364H66.793l.8-9.018a1.167,1.167,0,1,0-2.326-.206l-.815,9.224H56.6v-9.121a1.167,1.167,0,1,0-2.335,0v9.121H46.667l-.815-9.224a1.167,1.167,0,1,0-2.326.206l.8,9.018H42.9a1.169,1.169,0,0,0,0,2.338H44.53l.735,8.317H38.724l-1.768-8.317h1.27a1.169,1.169,0,0,0,0-2.338H36.459l-1.99-9.364a1.167,1.167,0,1,0-2.283.487l1.887,8.877H26.989L22.712,232.7h.442a1.169,1.169,0,0,0,0-2.338H21.1a1.169,1.169,0,0,0-1.108,1.536L31.3,266.164A4.7,4.7,0,0,0,35.77,269.4h39.5a4.7,4.7,0,0,0,4.479-3.258l3.465-10.671a1.168,1.168,0,1,0-2.22-.723l-.508,1.563h-5.7l1.768-8.317h6.638l-.749,2.307a1.168,1.168,0,1,0,2.22.723l6.213-19.132A1.171,1.171,0,0,0,90.7,230.843ZM64.243,247.994l-.735,8.317H56.6v-8.317Zm.658,19.068.743-8.412H71.9l-1.788,8.412Zm-2.344,0H56.6v-8.412H63.3Zm-14,0-.743-8.412h6.446v8.412Zm-1.685-19.068h7.387v8.317H47.609Zm-1.4,10.656.743,8.412H41.008l-1.788-8.412Zm-10.9-10.656,1.768,8.317H30.506l-2.745-8.317Zm-1.054,17.436-2.238-6.78h5.556l1.788,8.412H35.77A2.371,2.371,0,0,1,33.515,265.429Zm46.21-6.78-2.2,6.769a2.369,2.369,0,0,1-2.258,1.643H72.5l1.788-8.412h5.442Zm-7.332-2.338H65.852l.735-8.317h7.574Z" transform="translate(-16.928 -176.981)" fill="#639704"/><path d="M77,209.894a5.016,5.016,0,0,1-5,5H5a5,5,0,0,1,0-10.009H72a5.018,5.018,0,0,1,4.991,4.726C77,209.707,77,209.8,77,209.894Z" transform="translate(0 -155.151)" fill="#639704"/><path d="M105.232,209.614h-67a5.016,5.016,0,0,1-4.988-4.726h67A5.017,5.017,0,0,1,105.232,209.614Z" transform="translate(-28.24 -155.138)" fill="#1abcbc"/><path d="M240.247,49.112V72.876a3.4,3.4,0,1,1-6.79,0V49.112a3.39,3.39,0,0,1,5.792-2.4c.034.034.068.07.1.108A3.375,3.375,0,0,1,240.247,49.112Z" transform="translate(-198.352 -19.79)" fill="#639704"/><path d="M268.441,55.344V79.109a3.379,3.379,0,0,1-.895,2.29,3.373,3.373,0,0,1-.9-2.29V55.344a3.368,3.368,0,0,1,.9-2.288A3.375,3.375,0,0,1,268.441,55.344Z" transform="translate(-226.55 -26.023)" fill="#1abcbc"/><circle cx="1.008" cy="1.008" r="1.008" transform="translate(37.492 52.016)" fill="#a4e276"/></g><g transform="translate(197.711 277)"><path d="M42,0A11,11,0,1,0,53,11.052,11.076,11.076,0,0,0,42,0Zm0,0" transform="translate(-24.711 0)" fill="#ffd32a"/><path d="M91.857,67.758l-5.679,6-1.535,1.612L80.5,70.983l2.149-2.258,2,2.064,1.535-1.613,3.53-3.676Zm0,0" transform="translate(-68.889 -58.834)" fill="#fff5f5"/></g></g></svg>