<svg xmlns="http://www.w3.org/2000/svg" width="35" height="36" viewBox="0 0 35 36"><g transform="translate(-5923 -732)"><g transform="translate(5601 578)"><g transform="translate(224.691 133.286)"><path d="M121.238,58.373a4.767,4.767,0,0,0-1.262.806,28.2,28.2,0,0,1-6.241,3.083c-.357.129-.631.192-.6-.371a2.008,2.008,0,0,0-.734-1.538,8.966,8.966,0,0,0-3.76-1.951A15.454,15.454,0,0,1,97.721,46.769a15.947,15.947,0,0,1,.623-9.167,12.052,12.052,0,0,1,2.74-4.666,15.014,15.014,0,0,1,2.832-2.581,16.16,16.16,0,0,1,6.429-2.617,17.979,17.979,0,0,1,3.82-.2A15.414,15.414,0,0,1,119.873,29a15.184,15.184,0,0,1,5.542,4.244,16.225,16.225,0,0,1,3.437,7.374,14.964,14.964,0,0,1,.114,5.114A19.435,19.435,0,0,1,126,53.53a20.493,20.493,0,0,1-4.211,4.55A3.206,3.206,0,0,1,121.238,58.373Z" transform="translate(0 -5.635)" fill="#dc0331"/><path d="M154,54.932c.51-.437,1.029-.864,1.527-1.314a18.454,18.454,0,0,0,6.152-11.484A15.279,15.279,0,0,0,159.5,31.9a14.8,14.8,0,0,0-3.259-3.881,16.426,16.426,0,0,0-19.228-1.238c-.187.119-.342.332-.613.3-.03-.279.185-.407.367-.544a15.775,15.775,0,0,1,7.706-3,16.264,16.264,0,0,1,7.318.821,16.983,16.983,0,0,1,5.36,3.012,16.725,16.725,0,0,1,4.354,5.517,17.562,17.562,0,0,1,1.918,6.712,19.611,19.611,0,0,1-.258,5.547,20.414,20.414,0,0,1-1.932,5.428,1.617,1.617,0,0,1-.445.6c-.69,1.026-1.361,2.065-2.076,3.074a18.229,18.229,0,0,1-2.135,2.509C156.187,55.445,155.072,55.216,154,54.932Z" transform="translate(-32.875 -2.239)" fill="#ff6a00"/><path d="M132.878,49.18c.424-1.112,1.018-2.146,1.384-3.287a19.308,19.308,0,0,0,1.262-7.72,19.768,19.768,0,0,0-1.7-6.824,17.028,17.028,0,0,0-4.008-5.591A17.606,17.606,0,0,0,125,22.643a15.6,15.6,0,0,0-4.24-1.153,15.338,15.338,0,0,0-9.223,1.66,9.742,9.742,0,0,0-2.53,1.772,18.038,18.038,0,0,0-5.56,7.26,9.339,9.339,0,0,1,1.239-3.111,15.9,15.9,0,0,1,9.545-7.664,15.384,15.384,0,0,1,7.051-.49c7.6,1.245,12.4,5.886,15,13a21.4,21.4,0,0,1,.857,10.286,33.093,33.093,0,0,1-1.326,5.705c-.147.461-.272.483-.611.173A3.661,3.661,0,0,0,132.878,49.18Z" transform="translate(-5.091)" fill="#ffbf0a"/></g></g></g></svg>